<svg width="263" height="767" viewBox="0 0 263 767" fill="none" xmlns="http://www.w3.org/2000/svg">
<path d="M241.602 465.901H262.607L132.828 0.458984L132.8 0.515041V0.458984L0.892578 465.901H22.261L0.892578 541.27H21.2528L0.892578 613.079H103.478L96.7563 766.065H166.771L160.021 613.079H262.607L242.582 541.27H262.607L241.602 465.901Z" fill="url(#paint0_linear)" fill-opacity="0.2"/>
<defs>
<linearGradient id="paint0_linear" x1="131.75" y1="0.458984" x2="131.75" y2="766.065" gradientUnits="userSpaceOnUse">
<stop offset="0.795565" stop-color="#FFDA01"/>
<stop offset="1" stop-color="#FFDA01" stop-opacity="0"/>
</linearGradient>
</defs>
</svg>
<svg width="263" height="767" viewBox="0 0 263 767" fill="none" xmlns="http://www.w3.org/2000/svg">
<path d="M241.602 465.901H262.607L132.828 0.458984L132.8 0.515041V0.458984L0.892578 465.901H22.261L0.892578 541.27H21.2528L0.892578 613.079H103.478L96.7563 766.065H166.771L160.021 613.079H262.607L242.582 541.27H262.607L241.602 465.901Z" fill="url(#paint0_linear)" fill-opacity="0.2"/>
<defs>
<linearGradient id="paint0_linear" x1="131.75" y1="0.458984" x2="131.75" y2="766.065" gradientUnits="userSpaceOnUse">
<stop offset="0.795565" stop-color="#FFDA01"/>
<stop offset="1" stop-color="#FFDA01" stop-opacity="0"/>
</linearGradient>
</defs>
</svg>
